<?xml version="1.0" encoding="utf-8"?>
<!-- Generator: Adobe Illustrator 25.2.1, SVG Export Plug-In . SVG Version: 6.00 Build 0)  -->
<svg version="1.1" id="Layer_1" xmlns="http://www.w3.org/2000/svg" xmlns:xlink="http://www.w3.org/1999/xlink" x="0px" y="0px"
	 viewBox="0 0 1154.6 237.7" style="enable-background:new 0 0 1154.6 237.7;" xml:space="preserve">
<style type="text/css">
	.st0{fill:#3D3D3D;}
</style>
<path class="st0" d="M99.1,84.9l-0.3,77.5c0,6.1,1.4,10.8,4.1,14c2.8,3.2,6.3,4.8,10.6,4.8c4.3,0,8.5-1.6,12.4-4.9
	c3.9-3.3,6.7-7.8,8.4-13.5v-19.4c0-28,0.6-47,1.9-57.2c0.6-3.6,2.4-6.8,5.4-9.5c3-2.8,8.2-4.4,15.7-4.9c7.5-0.5,15-0.8,22.4-0.8
	c7.4,0,20,0.4,37.8,1.3c5.1,0.2,9.1,1.7,12.1,4.4c3,2.8,4.7,5.9,5.1,9.5c1.5,13.8,2.2,34.9,2.2,63.4c0,28.5-0.4,47.9-1.3,58.3
	c-0.8,10.4-2.4,17.2-4.8,20.3c-2.3,3.2-7.1,4.8-14.3,4.8h-62c-7.2,0-12-1.6-14.5-4.8c-2.4-3.2-4-8.6-4.6-16.2v-0.3
	c-21.8,16.7-44,25.1-66.4,25.1c-22.5,0-39.5-5.6-51-16.7C6.7,208.9,0.8,193.2,0.5,172.9C0.2,152.6,0,134.4,0,118.6S0.1,92,0.3,86.5
	C0.5,81,2,77,4.6,74.6c2.6-2.4,7.8-3.7,15.4-3.7l61-0.6c6.8,0,11.5,1.2,14.1,3.7C97.8,76.4,99.1,80,99.1,84.9z"/>
<path class="st0" d="M541.1,219l0.3-77.5c0-6.4-1.6-11.1-4.8-14.3c-3.2-3.2-7.1-4.8-11.9-4.8s-9.1,1.6-13,4.9
	c-3.9,3.3-5.9,7.9-5.9,13.8l0.3,46.1c0,14.6-0.1,24.7-0.3,30.2c-0.2,5.5-1.6,9.5-4.3,11.9c-2.7,2.4-7.8,3.7-15.4,3.7l-61,0.6
	c-6.8,0-11.5-1.2-14.1-3.7c-2.7-2.4-4-6.1-4-11l0.3-77.5c0-6.4-1.6-11.1-4.8-14.3c-3.2-3.2-7.1-4.8-11.9-4.8c-4.8,0-9.1,1.6-13,4.9
	c-3.9,3.3-5.9,7.9-5.9,13.8v19.4c0,28-0.6,47-1.9,57.2c-0.6,3.6-2.4,6.8-5.4,9.5c-3,2.8-8.2,4.4-15.7,4.9c-7.5,0.5-15,0.8-22.4,0.8
	c-7.4,0-20-0.4-37.8-1.3c-5.1-0.2-9.1-1.7-12.1-4.4c-3-2.8-4.7-5.9-5.1-9.5c-1.5-13.8-2.2-34.8-2.2-63.2c0-28.4,0.4-47.8,1.3-58.3
	c0.8-10.5,2.4-17.3,4.8-20.5c2.3-3.2,7.1-4.8,14.3-4.8h62c7.2,0,12,1.6,14.5,4.8c2.4,3.2,4,8.6,4.6,16.2v0.3
	c16.3-16.9,37.1-25.4,62.3-25.4c15.5,0,28.9,3,40.4,8.9c11.4,5.9,19.9,14.6,25.4,26.1c7-11.4,16.6-20.1,28.8-26.1
	c12.2-5.9,25.4-8.9,39.6-8.9c21.6,0,39.1,5.7,52.4,17.2c13.3,11.4,20.2,27.2,20.5,47.3c0.3,20.1,0.5,38.1,0.5,54
	c0,15.9-0.1,26.6-0.3,32.1c-0.2,5.5-1.6,9.5-4.3,11.9c-2.7,2.4-7.8,3.7-15.4,3.7l-61,0.6c-6.8,0-11.5-1.2-14.1-3.7
	C542.4,227.5,541.1,223.8,541.1,219z"/>
<path class="st0" d="M859.4,232.9l-34.9-0.3c-8.1,0-13.7-2.4-16.8-7.3l-29.5-47c-1.7-1.3-2.7-1.7-3-1.4s-0.5,3.9-0.6,10.8
	c-0.1,6.9-0.7,17.3-1.7,31.3c-0.4,3.4-2.1,6.5-5.1,9.2c-3,2.8-8,4.3-15.1,4.8c-7.1,0.4-15.7,0.6-25.7,0.6c-10.1,0-21.2-0.3-33.5-1
	c-5.1-0.2-9.1-1.6-11.9-4.3c-2.9-2.6-4.5-5.8-4.9-9.4c-2.1-25.8-3.2-60.4-3.2-103.6s0.8-74.7,2.5-94.4c0.6-7.2,2.1-12.4,4.3-15.7
	c2.2-3.3,6.8-4.9,13.8-4.9h61c7,0,11.6,1.6,14,4.9c2.3,3.3,3.8,8.5,4.4,15.7c1.3,18.4,1.9,49.4,1.9,92.8c0,4.9,0.8,7.3,2.5,7.3
	c1.1,0,2.2-0.6,3.5-1.9l41.6-38.1c3.6-3.2,6.6-5.2,8.9-6.2c2.3-1,5.6-1.4,9.8-1.4H888c2.8,0,4.8,1.8,6,5.4c0.4,0.8,0.6,2.1,0.6,3.8
	c0,1.7-1.1,3.6-3.2,5.7l-44.2,38.8c-1.7,1.7-1.7,3.5,0,5.4c20.1,23.7,41.5,51.5,64.2,83.2c2.3,3.2,3.5,6,3.5,8.6
	c0,5.3-3.9,7.9-11.8,7.9L859.4,232.9z"/>
<path class="st0" d="M1049.4,65.8c69,0,103.9,22.5,104.5,67.4c0.4,19.1,0.6,36.5,0.6,52.4s-0.1,26.6-0.3,32.1
	c-0.2,5.5-1.6,9.5-4.3,11.9c-2.7,2.4-7.8,3.7-15.4,3.7h-67.4c-6.8,0-11.4-1.2-14-3.7c-2.5-2.4-3.9-6.1-4.1-11c0-0.2-0.1-0.6-0.2-1.1
	c-0.1-0.5-0.2-1-0.2-1.4c-14,14.4-33,21.6-57.2,21.6c-16.7,0-31-4.2-42.7-12.6c-11.8-8.4-17.6-19.9-17.6-34.6
	c0-14.7,4.2-26.5,12.5-35.3c8.4-8.8,18.3-14.8,29.9-18c11.5-3.2,23.9-4.8,37.2-4.8c13.2,0,26.2,1.3,38.9,3.8v-1.3
	c0-10.6-2.1-18.2-6.2-22.9c-4.1-4.7-10.8-7-20-7s-16.9,0.8-23,2.4c-6.1,1.6-10.8,3.2-14,4.9c-8.7,5.1-14.7,7.6-18.1,7.6
	c-3.4,0-6.4-1.6-9.1-4.8c-2.7-3.2-4-8.1-4-14.8s1.2-11.3,3.7-13.8c2.4-2.5,6.3-5.1,11.6-7.6C989,70.3,1015.3,65.8,1049.4,65.8z
	 M1034.5,195.8c9.3,0,14.1-1.8,14.3-5.4c0.4-7,0.6-16.2,0.6-27.6c0-4.4-3.4-6.7-10.2-6.7c-6.8,0-12.3,1.6-16.5,4.9
	c-4.2,3.3-6.4,8.1-6.4,14.5s1.7,11.3,5.2,14.9C1025.1,194,1029.4,195.8,1034.5,195.8z"/>
<path class="st0" d="M41.2,4.8L6,48c-5.7,7-0.7,17.4,8.3,17.4l69.2-1c11,0,17.1-11.8,10.1-20.4l-32-39.2C56.4-1.6,46.5-1.6,41.2,4.8
	z"/>
<path class="st0" d="M177.7,5.5l-35.8,42.1c-5.8,6.8-0.7,17,8.4,17l72.7,1.6c11.2,0,16.1-8.5,7.3-19.9L198.5,5.5
	C193.1-0.8,183.1-0.8,177.7,5.5z"/>
</svg>
